<?xml version="1.0" standalone="no"?><!DOCTYPE svg PUBLIC "-//W3C//DTD SVG 1.1//EN" "http://www.w3.org/Graphics/SVG/1.1/DTD/svg11.dtd"><svg t="1583905384509" class="icon" viewBox="0 0 1024 1024" version="1.1" xmlns="http://www.w3.org/2000/svg" p-id="2226" xmlns:xlink="http://www.w3.org/1999/xlink" width="64" height="64"><defs><style type="text/css">@font-face { font-family: element-icons; src: url("chrome-extension://moombeodfomdpjnpocobemoiaemednkg/fonts/element-icons.woff") format("woff"), url("chrome-extension://moombeodfomdpjnpocobemoiaemednkg/fonts/element-icons.ttf ") format("truetype"); }
</style></defs><path d="M167.7 844.3h751.1v-22.6c0.1-1.1 0.2-2.1 0.2-3.1 0-79.9-14.2-155.5-41.2-218.6-24.2-56.9-57.4-99.9-96.4-125.4 27.3-28.9 42.7-67.4 42.7-107.2 0-86.1-70-156.1-156.1-156.1-16.3 0-32.4 2.5-47.7 7.4-29.7-25.2-67.2-39-106.3-39-37.6 0-74.1 12.9-103.3 36.6-17.3-6.5-35.5-9.7-54.2-9.7-86.1 0-156.1 70-156.1 156.1 0 39.8 15.5 78.3 42.7 107.2-38.6 25.2-71.5 67.7-95.7 123.6-26.7 61.6-41.1 135.6-41.9 213.9-0.3 1.8-0.5 3.7-0.5 5.6v31.4h62.7z m651.1-222.7c20.2 46.2 32.8 101.3 36.5 160h-79.5c-2.7-73.2-18-143.1-44.3-202.5-9.6-21.5-20.4-41.2-32.2-58.7 9.2-1.9 18.3-4.6 27-8.1 2.8 3.7 6.4 6.7 10.6 8.8 31.9 16.3 60.2 51 81.9 100.5zM662.8 274c1.8-0.1 3.5-0.1 5.3-0.1 51.5 0 93.4 41.9 93.4 93.4 0 47.2-35.3 87.1-82.1 92.7-8.6 1-16.1 5.5-21.2 12.1-7.3-6.7-14.8-12.7-22.5-18 27.6-30.3 42.7-69.1 42.6-110.4 0-24.1-5.3-47.9-15.5-69.7zM514.1 242.3c56 0 101.5 45.5 101.6 101.5 0 55.9-45.6 101.5-101.6 101.5-55.9 0-101.5-45.5-101.5-101.5S458.1 242.3 514.1 242.3z m-74.6 254c1.9-1 3.7-2.1 5.4-3.4 21.6 10 45.4 15.3 69.2 15.3 22.6 0 45.3-4.8 66-13.9 1.2 0.8 2.5 1.5 3.8 2.1 71.1 33.9 123.6 150.6 129 285.3v0.1H311.8c5.2-134 57.2-250.6 127.7-285.5zM356.6 269.1c3.6 0 7.2 0.3 10.8 0.6-11.5 22.9-17.6 48.2-17.6 74 0 40.2 14.5 78.3 40.9 108.3-7.7 5.2-15.3 11-22.6 17.5-5-7.8-13.2-13.1-22.8-14.3-46.8-5.6-82.1-45.5-82.1-92.7 0-51.5 41.9-93.4 93.4-93.4zM205.2 618.7c21.7-50.4 50.3-85.7 82.6-102.2 4.2-2.1 7.8-5.2 10.6-8.8 9.3 3.7 18.9 6.5 28.8 8.4-12.7 18.1-24.1 38.6-34.1 61-26.4 59.2-41.6 129.8-44.1 204.6v0.1h-79.9c3.3-59.7 15.7-115.9 36.1-163.1z" p-id="2227" fill="#946ec0"></path></svg>