<?xml version="1.0" standalone="no"?><!DOCTYPE svg PUBLIC "-//W3C//DTD SVG 1.1//EN" "http://www.w3.org/Graphics/SVG/1.1/DTD/svg11.dtd"><svg t="1584000733714" class="icon" viewBox="0 0 1024 1024" version="1.1" xmlns="http://www.w3.org/2000/svg" p-id="3624" width="64" height="64" xmlns:xlink="http://www.w3.org/1999/xlink"><defs><style type="text/css">@font-face { font-family: element-icons; src: url("chrome-extension://moombeodfomdpjnpocobemoiaemednkg/fonts/element-icons.woff") format("woff"), url("chrome-extension://moombeodfomdpjnpocobemoiaemednkg/fonts/element-icons.ttf ") format("truetype"); }
</style></defs><path d="M555.885714 703.268571a82.285714 82.285714 0 0 1-56.685714-22.308571l-8.411429-8.045714a81.92 81.92 0 0 1-25.965714-61.805715 88.502857 88.502857 0 0 1 29.988572-64.731428l312.32-276.845714a51.931429 51.931429 0 0 1 75.702857 73.142857l-256 329.142857a88.502857 88.502857 0 0 1-62.537143 33.645714z m-31.817143-49.005714a46.445714 46.445714 0 0 0 36.571429 12.068572 51.931429 51.931429 0 0 0 36.571429-19.748572l257.828571-329.142857a15.725714 15.725714 0 0 0 0-21.942857 16.457143 16.457143 0 0 0-21.942857 0l-312.32 276.845714a51.565714 51.565714 0 0 0-17.554286 36.571429 44.982857 44.982857 0 0 0 14.262857 36.571428zM339.748571 886.125714A765.805714 765.805714 0 0 1 236.617143 877.714286a18.651429 18.651429 0 0 1-14.994286-15.36 18.285714 18.285714 0 0 1 9.874286-19.017143 266.605714 266.605714 0 0 0 109.714286-116.662857 89.965714 89.965714 0 0 1 61.805714-56.685715 98.742857 98.742857 0 0 1 81.188571 18.285715 118.125714 118.125714 0 0 1 44.617143 91.428571 100.571429 100.571429 0 0 1-52.662857 77.531429 272.091429 272.091429 0 0 1-136.411429 28.891428zM292.571429 847.725714c54.125714 4.022857 129.097143 3.291429 166.034285-20.48a66.194286 66.194286 0 0 0 36.571429-49.005714 80.457143 80.457143 0 0 0-31.817143-61.074286 59.977143 59.977143 0 0 0-48.64-10.971428 54.491429 54.491429 0 0 0-36.571429 36.571428A275.017143 275.017143 0 0 1 292.571429 847.725714zM551.497143 362.788571a65.462857 65.462857 0 1 1 65.462857-65.097142 65.097143 65.097143 0 0 1-65.462857 65.097142z m0-93.988571a28.891429 28.891429 0 1 0 28.891428 28.891429 28.525714 28.525714 0 0 0-28.891428-28.891429zM356.571429 434.102857a70.582857 70.582857 0 1 1 70.948571-70.582857 70.948571 70.948571 0 0 1-70.948571 70.582857z m0-104.96a34.011429 34.011429 0 1 0 34.377142 34.011429 34.011429 34.011429 0 0 0-34.377142-34.011429zM301.714286 626.834286a70.582857 70.582857 0 1 1 70.582857-70.582857 70.582857 70.582857 0 0 1-70.582857 70.582857z m0-104.594286a34.011429 34.011429 0 0 0 0 68.022857 34.011429 34.011429 0 1 0 0-68.022857z" p-id="3625" fill="#000000"></path><path d="M281.6 819.931429a20.48 20.48 0 0 1-11.702857-4.022858 384.731429 384.731429 0 0 1-140.434286-298.788571A378.514286 378.514286 0 0 1 502.857143 134.582857a369.371429 369.371429 0 0 1 283.062857 133.12 18.651429 18.651429 0 0 1-2.194286 25.965714 17.92 17.92 0 0 1-25.6-2.56 333.897143 333.897143 0 0 0-256-119.954285 341.577143 341.577143 0 0 0-336.822857 345.965714A348.16 348.16 0 0 0 292.571429 787.748571a18.285714 18.285714 0 0 1-11.702858 32.182858zM526.628571 889.417143h-19.017142a18.285714 18.285714 0 0 1-17.188572-19.382857 18.651429 18.651429 0 0 1 19.382857-17.188572 174.445714 174.445714 0 0 0 146.285715-50.834285 114.468571 114.468571 0 0 0 24.868571-101.302858 80.091429 80.091429 0 0 1 53.76-99.474285 135.314286 135.314286 0 0 0 92.16-66.194286 169.325714 169.325714 0 0 0 0-121.782857 18.285714 18.285714 0 1 1 33.645714-13.531429 202.24 202.24 0 0 1-2.194285 151.771429 168.96 168.96 0 0 1-114.834286 84.845714 43.885714 43.885714 0 0 0-28.16 56.32 150.674286 150.674286 0 0 1-32.548572 133.12 205.897143 205.897143 0 0 1-156.16 63.634286z" p-id="3626" fill="#000000"></path></svg>