<?xml version="1.0" standalone="no"?><!DOCTYPE svg PUBLIC "-//W3C//DTD SVG 1.1//EN" "http://www.w3.org/Graphics/SVG/1.1/DTD/svg11.dtd"><svg t="1584081321882" class="icon" viewBox="0 0 1024 1024" version="1.1" xmlns="http://www.w3.org/2000/svg" p-id="11844" xmlns:xlink="http://www.w3.org/1999/xlink" width="64" height="64"><defs><style type="text/css">@font-face { font-family: element-icons; src: url("chrome-extension://moombeodfomdpjnpocobemoiaemednkg/fonts/element-icons.woff") format("woff"), url("chrome-extension://moombeodfomdpjnpocobemoiaemednkg/fonts/element-icons.ttf ") format("truetype"); }
</style></defs><path d="M932.978 762.311v-62.236H891.79a141.312 141.312 0 0 0-19.342-46.65l29.127-29.013-43.918-44.145-29.013 29.013a143.474 143.474 0 0 0-46.65-19.228v-40.96h-62.122v41.187a142.336 142.336 0 0 0-46.649 19.342l-29.013-29.354-43.918 43.918 29.127 29.013a141.312 141.312 0 0 0-19.343 46.65H568.89v62.463h41.187a142.336 142.336 0 0 0 19.343 46.649l-29.127 29.013 43.918 43.919 29.013-29.128a141.312 141.312 0 0 0 46.649 19.343v41.187h62.123v-41.301a142.336 142.336 0 0 0 46.649-19.342l29.013 29.127 43.918-43.918-29.127-29.014a141.312 141.312 0 0 0 19.342-46.649zM845.71 731.25a94.777 94.777 0 1 1-94.777-94.89 94.89 94.89 0 0 1 94.777 94.776z" p-id="11845"></path><path d="M361.7 913.18H91.022V116.736h757.76v323.925h-52.338V169.074H143.36v691.769H361.7v52.337z" p-id="11846"></path><path d="M242.347 276.025h52.337v52.338h-52.337z m102.4 0h352.71v52.338h-352.71z m-102.4 212.764h52.337v52.338h-52.337z m102.4 0h329.955v52.338H344.747z m-102.4 212.765h52.337v52.338h-52.337z m102.4 0h159.289v52.338h-159.29z" p-id="11847"></path></svg>