<?xml version="1.0" standalone="no"?><!DOCTYPE svg PUBLIC "-//W3C//DTD SVG 1.1//EN" "http://www.w3.org/Graphics/SVG/1.1/DTD/svg11.dtd"><svg t="1583905532709" class="icon" viewBox="0 0 1024 1024" version="1.1" xmlns="http://www.w3.org/2000/svg" p-id="13797" xmlns:xlink="http://www.w3.org/1999/xlink" width="64" height="64"><defs><style type="text/css">@font-face { font-family: element-icons; src: url("chrome-extension://moombeodfomdpjnpocobemoiaemednkg/fonts/element-icons.woff") format("woff"), url("chrome-extension://moombeodfomdpjnpocobemoiaemednkg/fonts/element-icons.ttf ") format("truetype"); }
</style></defs><path d="M700.2 382.4l11.4 58.2 4.2 21.3 20.1 8.1 0.3 0.1c0.8 0.3 1.6 0.6 2.4 1l19.9 8.4 17.9-12 49.3-33.1 42.1 42.1-32.8 49.1-12.1 18 8.5 19.9c0.4 0.9 0.8 1.9 1.3 3.1l8.1 20 21.2 4.2 58 11.4V662l-57.9 11.5-21.2 4.2-8.1 20.1c-0.4 1-0.8 2.1-1.3 3.1l-8.5 19.9 12.1 18 32.9 49.1-42 42.2-49.3-32.9-18-12-19.9 8.4c-0.8 0.4-1.8 0.8-2.9 1.2l-20.1 8.1-4.2 21.3-11.5 58.3h-59.6L628.9 824l-4.2-21.1-20-8.1c-0.9-0.4-2-0.8-2.9-1.2l-19.9-8.5-18 12.1-49.6 33.2-42.2-42.4 33.4-49.8 12-17.9-8.4-19.9c-0.3-0.7-0.6-1.3-0.8-2l-0.2-0.4-8.1-20-21.2-4.2-58.7-11.8v-59.6l58.9-11.6 21.2-4.2 8.1-20 0.3-0.6c0.2-0.6 0.5-1.2 0.7-1.8l8.4-19.9-12-18-33.3-49.8 42.1-42.1 49.6 33.3 18 12.1 20-8.5c0.9-0.4 1.7-0.7 2.6-1.1h0.1l20-8.1 4.2-21.2 11.6-58.5h59.6m32.9-40H607.7l-18 90.7c-1.1 0.4-2.2 0.9-3.3 1.4l-76.9-51.6-88.5 88.6 51.6 77.1-1.2 3-91.1 17.9v125.3l91 18.1 1.2 3-51.9 77.1 88.6 88.6 76.9-51.4 3.6 1.5 18 90.7H733l17.9-90.5 3.6-1.5 76.6 51.2 88.6-88.6-51.2-76.4c0.5-1.3 1.1-2.6 1.6-3.9l90.1-17.9V569.5l-90.3-17.8c-0.5-1.3-1.1-2.6-1.6-3.9l51-76.4-88.6-88.6-76.6 51.4c-1.1-0.5-2.2-0.9-3.2-1.3l-17.8-90.5z m-63 210c44.1 0 80 35.9 80 80s-35.9 80-80 80-80-35.9-80-80 35.9-80 80-80m0-40c-66.3 0-120 53.7-120 120s53.7 120 120 120 120-53.7 120-120-53.7-120-120-120z m289.8-410.8h-896v40h896v-40z m0 183.1h-896v40h896v-40z m-641 358.2h-255v40h255v-40z m0-179.1h-255v40h255v-40z m0 358.2h-255v40h255v-40z" fill="#1296db" p-id="13798"></path></svg>